<?xml version="1.0" encoding="utf-8"?>
<!-- Generator: Adobe Illustrator 19.0.0, SVG Export Plug-In . SVG Version: 6.00 Build 0)  -->
<svg version="1.1" id="Layer_1" xmlns="http://www.w3.org/2000/svg" xmlns:xlink="http://www.w3.org/1999/xlink" x="0px" y="0px"
	 viewBox="-182 -246.6 246.6 246.6" style="enable-background:new -182 -246.6 246.6 246.6;" xml:space="preserve">
<style type="text/css">
	.st0{fill:#0185B1;}
	.st1{fill:url(#XMLID_2_);}
	.st2{opacity:0.9;}
	.st3{fill:#F9FBFC;}
	.st4{opacity:7.000000e-002;fill:#8C8C8C;enable-background:new    ;}
	.st5{fill:none;}
	.st6{fill:none;stroke:#000000;stroke-width:15;stroke-miterlimit:10;}
	.st7{fill:#ABADAE;}
	.st8{fill:none;stroke:#000000;stroke-width:15;stroke-linecap:round;stroke-linejoin:round;stroke-miterlimit:10;}
	.st9{fill:none;stroke:#8C8C8C;stroke-width:15;stroke-linecap:round;stroke-linejoin:round;stroke-miterlimit:10;}
	.st10{fill:none;stroke:#F9FBFC;stroke-width:7;stroke-linecap:round;stroke-linejoin:round;stroke-miterlimit:10;}
	.st11{fill:none;stroke:#8C8C8C;stroke-miterlimit:10;}
	.st12{fill:none;stroke:#8C8C8C;stroke-width:15;stroke-miterlimit:10;}
	.st13{fill:#8C8C8C;}
	.st14{opacity:0.75;}
	.st15{fill:none;stroke:#F9FBFC;stroke-width:11;stroke-linecap:round;stroke-linejoin:round;stroke-miterlimit:10;}
</style>
<rect x="-889.9" y="-519.4" class="st0" width="313.3" height="298.7"/>
<linearGradient id="XMLID_2_" gradientUnits="userSpaceOnUse" x1="-182" y1="16803.9746" x2="64.6" y2="16803.9746" gradientTransform="matrix(1 0 0 1 0 -16927.2754)">
	<stop  offset="0" style="stop-color:#F79969"/>
	<stop  offset="1" style="stop-color:#F6B53E"/>
</linearGradient>
<circle id="XMLID_3935_" class="st1" cx="-58.7" cy="-123.3" r="123.3"/>
<g id="XMLID_3518_" class="st2">
	<g id="XMLID_3523_">
		<path id="XMLID_3597_" class="st3" d="M246.6-170.9h-1.5c-1-1.6-2.7-2.6-4.7-2.6h-10.7c-2,0-3.7,1-4.7,2.6h-68.2
			c-1-1.6-2.7-2.6-4.7-2.6h-10.7c-2,0-3.7,1-4.7,2.6h-1.5c-8.2,0-14.8,6.6-14.8,14.8v24.8v0.1l0,0v56c0,1.1,0.9,2.1,2.1,2.1h136.8
			c1.1,0,2.1-0.9,2.1-2.1v-31.9c0-1.1-0.9-2.1-2.1-2.1c-1.1,0-2.1,0.9-2.1,2.1v29.8h-11.3v-52h11.3v14c0,1.1,0.9,2.1,2.1,2.1
			c1.1,0,2.1-0.9,2.1-2.1v-16.1l0,0v-24.7C261.4-164.3,254.7-170.9,246.6-170.9z M135.2-166.8h0.7v5.6h-10
			C127.7-164.6,131.2-166.8,135.2-166.8z M135.9-77.2h-11.3v-52h11.3V-77.2z M135.9-133.4h-11.3v-10.9h11.3V-133.4z M135.9-148.4
			L135.9-148.4h-11.3v-7.7c0-0.3,0-0.7,0-1h11.3V-148.4z M157.7-157.1h46.5c1.1,0,2.1-0.9,2.1-2.1c0-1.2-0.9-2.1-2.1-2.1h-46.5v-5.6
			h66.4v5.6h-10.4c-1.1,0-2.1,0.9-2.1,2.1c0,1.2,0.9,2.1,2.1,2.1h10.4v8.7h-66.4V-157.1z M157.7-144.3h66.4v10.9h-66.4V-144.3z
			 M200.3-129.2v9.3c0,5.2-4.2,9.4-9.4,9.4s-9.4-4.2-9.4-9.4v-9.3l0,0H200.3z M140-168c0-0.8,0.6-1.4,1.4-1.4h10.7
			c0.8,0,1.4,0.6,1.4,1.4v34.5H140V-168z M153.6-77.2H140v-4.5h13.6V-77.2z M224.1-77.2L224.1-77.2h-66.4V-101
			c0-1.1-0.9-2.1-2.1-2.1c-1.2,0-2.1,0.9-2.1,2.1v15.2H140v-43.4h13.6v19.8c0,1.1,0.9,2.1,2.1,2.1s2.1-0.9,2.1-2.1v-19.8h19.7v9.3
			c0,7.5,6.1,13.5,13.5,13.5s13.5-6.1,13.5-13.5v-9.3h19.7v52H224.1z M241.8-77.2h-13.6v-4.5h13.6V-77.2L241.8-77.2z M228.2-85.8
			v-43.4h13.6v43.4H228.2L228.2-85.8z M241.8-133.4h-13.6V-168c0-0.8,0.6-1.4,1.4-1.4h10.7c0.8,0,1.4,0.6,1.4,1.4L241.8-133.4
			L241.8-133.4z M245.9-161.2v-5.6h0.7c4,0,7.5,2.2,9.3,5.6H245.9z M257.2-133.4h-11.3v-10.9h11.3V-133.4z M257.2-148.4h-11.3v-8.7
			h11.3c0,0.3,0,0.7,0,1V-148.4z"/>
	</g>
</g>
<circle id="XMLID_3968_" class="st4" cx="227.9" cy="-129.9" r="123.3"/>
<path class="st5" d="M-480.1-31h158.8c6.6,0,12-5.4,12-12v-67.7c0-6.6-5.4-12-12-12h-158.8c-6.6,0-12,5.4-12,12V-43
	C-492.1-36.4-486.7-31-480.1-31z"/>
<path class="st6" d="M-492.5-160.6L-492.5-160.6l185.2,0v0c0-25.1-17.3-46.9-41.8-52.7l-38.5-9c-8.1-1.9-16.5-1.9-24.6,0l-38.5,9
	C-475.2-207.5-492.5-185.7-492.5-160.6z"/>
<rect x="-466.5" y="-115.9" width="17.4" height="77.7"/>
<rect x="-350" y="-115.9" width="17.4" height="77.7"/>
<g>
	<rect x="-466.9" y="-197.7" width="17.4" height="29.8"/>
	<path d="M-449.5-197.7v-8.3c-2.7,0.7-6,1.6-9.6,3.3c-3.2,1.6-5.8,3.4-7.9,5"/>
</g>
<g>
	<rect x="-350" y="-197.7" width="17.4" height="29.8"/>
	<path d="M-350-197.7v-8.3c2.7,0.7,6,1.6,9.6,3.3c3.2,1.6,5.8,3.4,7.9,5"/>
</g>
<path d="M-398.8-86.9h-3.9c-6.8,0-12.3-5.5-12.3-12.3v-16.1h28.5v16.1C-386.5-92.4-392-86.9-398.8-86.9z"/>
<polygon class="st7" points="-498.9,-153.1 -480.6,-129.3 -318,-129.3 -300.5,-153.1 "/>
<polygon points="-500,-153.1 -479,-126.4 -465.5,-126.4 -485.9,-153.1 "/>
<polygon points="-334.2,-126.4 -313.2,-153.1 -299.8,-153.1 -320.2,-126.4 "/>
<circle class="st7" cx="-400.7" cy="-107.7" r="4.4"/>
<path class="st7" d="M-400.7-99.4L-400.7-99.4c0.7,0,1.2-0.6,1.2-1.2v-3.3c0-0.7-0.6-1.2-1.2-1.2l0,0c-0.7,0-1.2,0.6-1.2,1.2v3.3
	C-402-100-401.4-99.4-400.7-99.4z"/>
<path d="M-399.9-129.3"/>
<rect x="-490.6" y="-122.8" class="st8" width="181.5" height="91.7"/>
<rect x="-492.7" y="-392.9" class="st9" width="185.2" height="90"/>
<g>
	<g>
		<path class="st3" d="M-100.9-249.3h-118.6c-2.7,0-4.8-2.1-4.8-4.8v-58.2c0-2.7,2.1-4.8,4.8-4.8h118.6c2.7,0,4.8,2.1,4.8,4.8v58.2
			C-96.1-251.5-98.2-249.3-100.9-249.3z M-214.6-258.9h109v-48.6h-109V-258.9z"/>
	</g>
	<g>
		<g>
			<g>
				<path class="st3" d="M-224.2-307.3v-4.8c0-18.4,12.5-34.2,30.4-38.4l24.7-5.8c5.9-1.4,12.1-1.4,18,0l24.7,5.8
					c17.9,4.2,30.4,20,30.4,38.4v4.8L-224.2-307.3z M-214.3-316.9l108.2,0c-1.9-11.8-10.7-21.4-22.6-24.2l-24.7-5.8
					c-4.4-1-9.1-1-13.6,0l-24.7,5.8C-203.6-338.3-212.4-328.7-214.3-316.9z"/>
			</g>
			<g>
				<rect x="-202.8" y="-307.3" class="st3" width="11.1" height="48.6"/>
			</g>
			<g>
				<rect x="-128.2" y="-307.3" class="st3" width="11.1" height="48.6"/>
			</g>
			<g>
				<g>
					<rect x="-203.1" y="-335.8" class="st3" width="11.1" height="19.1"/>
				</g>
				<g>
					<path class="st3" d="M-191.9-335.8v-5.3c-1.7,0.4-3.8,1-6.1,2.1c-2,1-3.7,2.2-5,3.2"/>
				</g>
			</g>
			<g>
				<g>
					<rect x="-128.2" y="-335.8" class="st3" width="11.1" height="19.1"/>
				</g>
				<g>
					<path class="st3" d="M-128.2-335.8v-5.3c1.7,0.4,3.8,1,6.1,2.1c2,1,3.7,2.2,5,3.2"/>
				</g>
			</g>
			<g>
				<path class="st10" d="M-160.7-291.8L-160.7-291.8c-5,0-9.1-4.1-9.1-9.1v-7.2c0-1,0.8-1.8,1.8-1.8h14.6c1,0,1.8,0.8,1.8,1.8v7.2
					C-151.6-295.9-155.7-291.8-160.7-291.8z"/>
			</g>
		</g>
	</g>
</g>
<g>
	<g>
		<path class="st11" d="M-480.3-302.9h158.8c6.6,0,12-5.4,12-12v-67.7c0-6.6-5.4-12-12-12h-158.8c-6.6,0-12,5.4-12,12v67.7
			C-492.3-308.3-486.9-302.9-480.3-302.9z"/>
		<path class="st12" d="M-492.7-393.5L-492.7-393.5l185.2,0v0c0-25.1-17.3-46.9-41.8-52.7l-38.5-9c-8.1-1.9-16.5-1.9-24.6,0l-38.5,9
			C-475.4-440.4-492.7-418.6-492.7-393.5z"/>
		<rect x="-466.7" y="-386" class="st13" width="17.4" height="75.9"/>
		<rect x="-350.2" y="-386" class="st13" width="17.4" height="75.9"/>
		<g>
			<rect x="-467.1" y="-430.5" class="st13" width="17.4" height="29.8"/>
			<path class="st13" d="M-449.7-430.5v-8.3c-2.7,0.7-6,1.6-9.6,3.3c-3.2,1.6-5.8,3.4-7.9,5"/>
		</g>
		<g>
			<rect x="-350.2" y="-430.5" class="st13" width="17.4" height="29.8"/>
			<path class="st13" d="M-350.2-430.5v-8.3c2.7,0.7,6,1.6,9.6,3.3c3.2,1.6,5.8,3.4,7.9,5"/>
		</g>
		<path class="st13" d="M-399-357.6h-3.9c-6.8,0-12.3-5.5-12.3-12.3V-386h28.5v16.1C-386.7-363.1-392.2-357.6-399-357.6z"/>
	</g>
</g>
<g class="st14">
	<g>
		<g>
			<path d="M239.2-254.9H-18.7c-5.8,0-10.4-4.7-10.4-10.4v-126.6c0-5.8,4.7-10.4,10.4-10.4h257.8c5.8,0,10.4,4.7,10.4,10.4v126.6
				C249.6-259.6,244.9-254.9,239.2-254.9z M-8.2-275.8h237v-105.7h-237V-275.8z"/>
		</g>
	</g>
	<g>
		<g>
			<g>
				<g>
					<path d="M-29.1-380.9v-10.4c0-40,27.2-74.4,66.2-83.5l53.6-12.6c12.8-3,26.3-3,39.1,0l53.6,12.6c39,9.1,66.2,43.4,66.2,83.5
						v10.4L-29.1-380.9z M-7.4-401.8l235.3,0c-4.1-25.7-23.2-46.6-49.2-52.7L125-467c-9.7-2.3-19.9-2.3-29.6,0l-53.6,12.6
						C15.8-448.4-3.3-427.4-7.4-401.8z"/>
				</g>
			</g>
			<g>
				<g>
					<rect x="17.4" y="-380.9" width="24.2" height="105.7"/>
				</g>
			</g>
			<g>
				<g>
					<rect x="179.7" y="-380.9" width="24.2" height="105.7"/>
				</g>
			</g>
			<g>
				<g>
					<g>
						<rect x="16.9" y="-443" width="24.2" height="41.4"/>
					</g>
				</g>
				<g>
					<g>
						<path d="M41.1-443v-11.6c-3.8,1-8.3,2.2-13.3,4.6c-4.4,2.2-8.1,4.8-10.9,6.9"/>
					</g>
				</g>
			</g>
			<g>
				<g>
					<g>
						<rect x="179.7" y="-443" width="24.2" height="41.4"/>
					</g>
				</g>
				<g>
					<g>
						<path d="M179.7-443v-11.6c3.8,1,8.3,2.2,13.3,4.6c4.4,2.2,8.1,4.8,10.9,6.9"/>
					</g>
				</g>
			</g>
			<g>
				<g>
					<path d="M109-339.6c-15.1,0-27.5-12.3-27.5-27.5v-15.6c0-6.4,5.2-11.6,11.6-11.6h31.7c6.4,0,11.6,5.2,11.6,11.6v15.6
						C136.5-351.9,124.2-339.6,109-339.6z M96.8-379v12c0,6.7,5.5,12.2,12.2,12.2s12.2-5.5,12.2-12.2v-12H96.8z"/>
				</g>
			</g>
		</g>
	</g>
</g>
<image style="overflow:visible;" width="1242" height="2208" xlink:href="../../../../../Users/EleonorSilva/Desktop/Projeto/design/ai/app/ecras/colecoes_baus.jpg"  transform="matrix(1 0 0 1 731.4022 -1388.797)">
</image>
<g>
	<line class="st15" x1="-99.7" y1="-164.3" x2="-17.7" y2="-82.3"/>
	<line class="st15" x1="-17.7" y1="-164.3" x2="-99.7" y2="-82.3"/>
</g>
</svg>
